<svg id="Layer_1" enable-background="new 0 0 512 512" height="512" viewBox="0 0 512 512" width="512" xmlns="http://www.w3.org/2000/svg"><g><path d="m496 344.024v-62.702c0-10.33-6.61-19.502-16.411-22.768l-31.589-10.53-25.965-64.913c-3.645-9.112-12.47-15.087-22.283-15.087h-79.752v176z" fill="#f1cc76"/><path d="m496 281.324v62.7h-32v-62.7c0-10.33-6.61-19.5-16.41-22.77l-31.59-10.53-25.97-64.91c-3.64-9.12-12.47-15.09-22.28-15.09h32c9.81 0 18.64 5.97 22.28 15.09l25.97 64.91 31.59 10.53c9.8 3.27 16.41 12.44 16.41 22.77z" fill="#ebb15d"/><path d="m408 248.024h-56v-48h40z" fill="#c8effd"/><path d="m408 248.024h-24l-16-48h24z" fill="#a0e1fd"/><path d="m504 344.024v16c0 8.84-7.16 16-16 16h-464c-8.84 0-16-7.16-16-16v-15c0-1.556-35.143-1 496-1z" fill="#d9b3af"/><path d="m504 344.024v16c0 8.84-7.16 16-16 16h-32c8.84 0 16-7.16 16-16v-16z" fill="#c4928a"/><path d="m320 120.024v224h-304v-224c0-8.84 7.16-16 16-16h272c8.84 0 16 7.16 16 16z" fill="#edebfd"/><path d="m320 120.024v224h-48v-224c0-8.84-7.16-16-16-16h48c8.84 0 16 7.16 16 16z" fill="#d2d2fc"/><circle cx="104" cy="360.024" fill="#595965" r="48"/><path d="m152 360.024c0 33.301-33.171 56.527-64.5 45.09 18.38-6.73 31.5-24.38 31.5-45.09s-13.12-38.36-31.5-45.09c31.272-11.416 64.5 11.737 64.5 45.09z" fill="#44454e"/><circle cx="104" cy="360.024" fill="#edebfd" r="16"/><circle cx="408" cy="360.024" fill="#595965" r="48"/><path d="m152 168.024h112v112h-112z" fill="#ebb19c"/><path d="m232 168.024h32v112h-32z" fill="#e58d72"/><path d="m192 168.024h32v32h-32z" fill="#f4e1a1"/><path d="m456 360.024c0 33.301-33.171 56.527-64.5 45.09 18.38-6.73 31.5-24.38 31.5-45.09s-13.12-38.36-31.5-45.09c31.272-11.416 64.5 11.737 64.5 45.09z" fill="#44454e"/><circle cx="408" cy="360.024" fill="#edebfd" r="16"/><path d="m104 336.024c-13.234 0-24 10.766-24 24s10.766 24 24 24 24-10.766 24-24-10.766-24-24-24zm0 32c-4.411 0-8-3.589-8-8s3.589-8 8-8 8 3.589 8 8-3.589 8-8 8z"/><path d="m408 336.024c-13.234 0-24 10.766-24 24s10.766 24 24 24 24-10.766 24-24-10.766-24-24-24zm0 32c-4.411 0-8-3.589-8-8s3.589-8 8-8 8 3.589 8 8-3.589 8-8 8z"/><path d="m504 336.024v-54.702c0-13.796-8.793-25.996-21.881-30.358l-28.069-9.356-24.587-61.469c-4.888-12.219-16.55-20.115-29.711-20.115h-71.752v-40c0-13.234-10.766-24-24-24h-272c-13.234 0-24 10.766-24 24v216.059c-4.493.5-8 4.317-8 8.941v15c0 13.234 10.766 24 24 24h29.414c20.267 42.544 80.848 42.663 101.171 0h202.829c20.267 42.544 80.848 42.663 101.171 0h29.415c13.234 0 24-10.766 24-24v-16c0-4.419-3.582-8-8-8zm-104.249-160c6.581 0 12.412 3.948 14.856 10.058l25.965 64.914c.874 2.185 2.666 3.874 4.898 4.618l31.589 10.53c6.544 2.181 10.94 8.281 10.94 15.179v22.702h-8c-4.418 0-8 3.582-8 8s3.582 8 8 8h8v16h-29.414c-20.267-42.544-80.848-42.663-101.171 0h-29.414v-160h71.751zm-367.751-64h272c4.411 0 8 3.589 8 8v216h-157.414c-20.267-42.544-80.848-42.663-101.171 0h-29.415v-216c0-4.411 3.589-8 8-8zm-8 256c-4.411 0-8-3.589-8-8v-8h32.581c-.773 5.379-.774 10.611 0 16zm80 32c-16.75 0-31.119-10.353-37.068-24.993-.148-1.193-.559-2.303-1.173-3.274-2.345-7.627-2.348-15.83 0-23.467.614-.971 1.025-2.08 1.173-3.274 5.949-14.64 20.318-24.993 37.068-24.993s31.119 10.353 37.068 24.993c.148 1.193.559 2.303 1.173 3.274 2.345 7.626 2.348 15.83 0 23.467-.614.971-1.025 2.08-1.173 3.274-5.949 14.639-20.318 24.993-37.068 24.993zm55.419-32c.773-5.379.774-10.611 0-16h193.161c-.773 5.379-.774 10.611 0 16zm248.581 32c-16.75 0-31.119-10.353-37.068-24.993-.148-1.193-.559-2.303-1.173-3.274-2.345-7.627-2.348-15.83 0-23.467.614-.971 1.025-2.08 1.173-3.274 5.949-14.64 20.318-24.993 37.068-24.993s31.119 10.353 37.068 24.993c.148 1.193.559 2.303 1.173 3.274 2.345 7.626 2.348 15.83 0 23.467-.614.971-1.025 2.08-1.173 3.274-5.949 14.639-20.318 24.993-37.068 24.993zm88-40c0 4.411-3.589 8-8 8h-24.581c.773-5.379.774-10.611 0-16h32.581z"/><path d="m352 256.024h56c5.453 0 9.316-5.352 7.589-10.53l-16-48c-1.089-3.267-4.146-5.47-7.589-5.47h-40c-4.418 0-8 3.582-8 8v48c0 4.418 3.582 8 8 8zm8-48h26.234l10.667 32h-36.901z"/><path d="m368 272.024h-16c-4.418 0-8 3.582-8 8s3.582 8 8 8h16c4.418 0 8-3.582 8-8s-3.582-8-8-8z"/><path d="m72 264.024h72v16c0 4.418 3.582 8 8 8h112c4.418 0 8-3.582 8-8v-112c0-4.418-3.582-8-8-8-23.364 0-88.645 0-112 0-4.418 0-8 3.582-8 8v16h-24c-4.418 0-8 3.582-8 8s3.582 8 8 8h24v16h-40c-4.418 0-8 3.582-8 8s3.582 8 8 8h40v16h-72c-4.418 0-8 3.582-8 8s3.582 8 8 8zm144-88v16h-16v-16zm-56 0h24v24c0 4.418 3.582 8 8 8h32c4.418 0 8-3.582 8-8v-24h24v96h-96z"/></g></svg>